<svg xmlns="http://www.w3.org/2000/svg" width="356" height="356" fill="none" viewBox="0 0 356 356"><path fill="#FDD535" fill-rule="evenodd" d="m162.983 91.956-16.315 40.366a8.982 8.982 0 0 0-.528 1.979c-.637 4.614 2.62 8.865 7.274 9.508h.151l42.344 5.738c1.635.212 3.293.166 4.91-.138 8.102-1.566 13.388-9.341 11.8-17.357v-.006c-1.582-8.027-9.442-13.254-17.538-11.682l-12.618 2.444c-2.046.396-4.034-.929-4.434-2.955a3.716 3.716 0 0 1 .754-3.052l8.844-10.902a14.419 14.419 0 0 0 2.121-3.61 14.124 14.124 0 0 0-.179-11 14.35 14.35 0 0 0-8.057-7.579 14.22 14.22 0 0 0-5.013-.918c-5.97.052-11.313 3.666-13.516 9.163Z" clip-rule="evenodd"/><path fill="#26282E" fill-rule="evenodd" d="M105.628 278.604a17.173 17.173 0 0 1 12.281 1.45 14.295 14.295 0 0 1 7.205 10.039 4.95 4.95 0 0 1-3.725 5.932l-18.789 4.294a6.619 6.619 0 0 0 3.763 3.715 9.058 9.058 0 0 0 5.7.475 10.669 10.669 0 0 0 6.793-4.548c.003-.003.006-.003.006-.006a.516.516 0 0 1 .722-.133l5.869 4.025a18.559 18.559 0 0 1-11.677 8.126 17.505 17.505 0 0 1-13.24-1.767 16.453 16.453 0 0 1-7.6-11.125 16.191 16.191 0 0 1 2.127-13.301 16.988 16.988 0 0 1 10.565-7.176Zm59.998-15.488c.24.003.437.202.437.443v48.339h-9.796v-4.076a12.622 12.622 0 0 1-10.526 4.602 17.95 17.95 0 0 1-8.814-2.179 15.612 15.612 0 0 1-6.185-6.22 20.64 20.64 0 0 1 0-18.719 15.637 15.637 0 0 1 6.185-6.22 17.918 17.918 0 0 1 8.814-2.179 12.346 12.346 0 0 1 10.067 4.041v-17.389c0-.244.2-.443.444-.443h9.374Zm105.386 15.342a17.179 17.179 0 0 1 12.281 1.451 14.293 14.293 0 0 1 7.205 10.039 4.95 4.95 0 0 1-3.725 5.931l-18.789 4.291a6.624 6.624 0 0 0 3.766 3.715 9.066 9.066 0 0 0 5.7.475 10.69 10.69 0 0 0 6.793-4.547c0-.004.003-.004.003-.004a.516.516 0 0 1 .725-.139l5.869 4.025a18.58 18.58 0 0 1-11.677 8.13 17.497 17.497 0 0 1-13.24-1.771 16.435 16.435 0 0 1-7.601-11.119 16.19 16.19 0 0 1 2.125-13.3 16.973 16.973 0 0 1 10.565-7.177Zm34.358-.002a17.176 17.176 0 0 1 12.281 1.45 14.276 14.276 0 0 1 7.204 10.039 4.953 4.953 0 0 1-3.724 5.932l-18.789 4.291a6.601 6.601 0 0 0 3.762 3.711 9.07 9.07 0 0 0 5.701.478 10.697 10.697 0 0 0 6.796-4.55c.003 0 .003-.004.006-.007a.514.514 0 0 1 .722-.133l5.868 4.025a18.567 18.567 0 0 1-11.676 8.13l-.842.2a17.49 17.49 0 0 1-12.399-1.971 16.44 16.44 0 0 1-7.6-11.118 16.178 16.178 0 0 1 2.125-13.301 16.956 16.956 0 0 1 10.565-7.176Zm-103.601-9.903c.158 0 .288.126.288.288v8.325h8.814v7.889h-8.811v14.4a4.82 4.82 0 0 0 1.15 3.452 4.247 4.247 0 0 0 3.255 1.216 6.59 6.59 0 0 0 4.143-1.315l2.758 7.23a10.522 10.522 0 0 1-3.715 1.676 18.879 18.879 0 0 1-4.636.56 13.77 13.77 0 0 1-9.763-3.22 12.313 12.313 0 0 1-3.452-9.466v-14.53h-3.006v-7.892h3.006v-8.325c0-.162.126-.288.288-.288h9.681Zm-135.331.474a.653.653 0 0 1 .421.142.63.63 0 0 1 .092.89c-1.359 1.786-5.013 6.369-14.412 17.355-1.793 2.109-1.992 2.153.424 3.461a24.904 24.904 0 0 1 13.424 21.345h-9.62a12.731 12.731 0 0 0-3.861-9.938 22.808 22.808 0 0 0-12.766-7.011l-.05-.003a.471.471 0 0 0-.47.465v16.493H30v-42.547c0-.348.285-.633.633-.633h8.336c.351 0 .633.285.633.633l.002 17.122c.023.173.163.274.315.252 4.341-.757 14.02-15.464 15.486-17.732a.636.636 0 0 1 .538-.294h10.495ZM83.9 279.731a9.916 9.916 0 0 1 10.495.085 15.914 15.914 0 0 0-4.937 6.993l-.028.165h-1.793a7.01 7.01 0 0 0-6.178 2.942 13.355 13.355 0 0 0-2.04 7.765v14.428h-9.63V279.31c0-.279.228-.507.507-.507h8.658c.256 0 .465.209.465.466v3.933a15.624 15.624 0 0 1 4.481-3.471Zm154.077-11.045c2.193.056 4.371.408 6.472 1.048a10.859 10.859 0 0 1 4.788 2.851 11.21 11.21 0 0 1 2.904 7.553 8.868 8.868 0 0 1-3.275 7.553c-.484.402-1 .763-1.545 1.083-.288.145-.805.383-1.546.712a11.302 11.302 0 0 1 6.397 3.623 10.11 10.11 0 0 1 2.376 6.837 11.64 11.64 0 0 1-3.091 7.987c-2.391 2.682-6.552 4.025-12.484 4.025h-18.909v-42.61c0-.367.297-.665.665-.665l17.248.003Zm-54.7 7.841c.158 0 .288.129.288.288v35.082h-10.257v-35.082c0-.159.126-.285.285-.288h9.684Zm-42.819 11.17c-.006.009-.015.016-.022.025a9.896 9.896 0 0 0-2.533 7.132 9.519 9.519 0 0 0 2.749 6.923 8.219 8.219 0 0 0 6.232 2.872 8.443 8.443 0 0 0 6.378-2.663l-.006-.013a11.292 11.292 0 0 0 0-14.251 9.052 9.052 0 0 0-12.798-.025Zm95.97 6.096-1.018.029h-5.7v9.966h6.612a14.626 14.626 0 0 0 6.211-1.023 4.044 4.044 0 0 0 2.087-4.028 3.872 3.872 0 0 0-2.195-3.965 18.777 18.777 0 0 0-7.015-.95l1.018-.029Zm-124.017-7.206a7.003 7.003 0 0 0-4.908-.525 8.348 8.348 0 0 0-4.538 2.745 6.412 6.412 0 0 0-1.584 4.998l14.219-3.243a6.595 6.595 0 0 0-3.189-3.975Zm165.384-.142a7.028 7.028 0 0 0-4.908-.532 8.357 8.357 0 0 0-4.538 2.752 6.408 6.408 0 0 0-1.584 4.998l14.219-3.246a6.597 6.597 0 0 0-3.189-3.972Zm34.355-.009a7.014 7.014 0 0 0-4.909-.532 8.353 8.353 0 0 0-4.538 2.752 6.42 6.42 0 0 0-1.58 5.001l14.216-3.25a6.61 6.61 0 0 0-3.189-3.971Zm-76.92-9.607-.884.031h-4.636l-.003 9.342h4.573c2.023.105 4.05-.19 5.963-.868a3.664 3.664 0 0 0 1.948-3.746 3.872 3.872 0 0 0-1.79-3.8 14.15 14.15 0 0 0-6.055-.928l.884-.031Zm-52.194-15.088a5.072 5.072 0 0 1 1.774 3.945 5.59 5.59 0 0 1-1.774 4.241 6.43 6.43 0 0 1-4.038 1.675h-.563a6.498 6.498 0 0 1-4.602-1.65 5.57 5.57 0 0 1-.285-7.869 6.25 6.25 0 0 1 .285-.279 6.505 6.505 0 0 1 4.602-1.647 6.664 6.664 0 0 1 4.601 1.584ZM219.458 64.696a42.868 42.868 0 0 1 4.88 30.824c15.353 5.049 26.644 18.069 29.379 33.854 2.73 15.796-3.558 31.788-16.35 41.599a44.895 44.895 0 0 1-4.926 3.271 43.723 43.723 0 0 1-9.894 4.154 73.423 73.423 0 0 1-47.74.959 2.625 2.625 0 0 0-2.267.332 2.547 2.547 0 0 0-1.095 1.98 89.867 89.867 0 0 1-3.037 19.216 86.523 86.523 0 0 1-2.017 6.507c-1.009 2.846-3.727 4.751-6.77 4.751a7.063 7.063 0 0 1-1.379-.149c-25.74-4.78-48.164-20.289-61.558-42.581-.081-.155-.18-.304-.284-.471-.093-.16-.162-.281-.25-.436l-.11-.189c-12.148-20.771-15.428-45.485-9.122-68.66a90.016 90.016 0 0 1 2.023-6.507c1.176-3.317 4.63-5.285 8.12-4.625 2.248.425 4.486.93 6.705 1.515a92.309 92.309 0 0 1 18.466 7.092 2.622 2.622 0 0 0 2.278.057 2.546 2.546 0 0 0 1.42-1.767c.249-1.142.539-2.295.852-3.442 4.445-16.508 14.681-30.91 28.875-40.636l.093-.058a41.709 41.709 0 0 1 3.837-2.473l.573-.31c20.918-11.55 47.318-4.338 59.298 16.193Zm-43.235 20.211c-5.694.05-10.791 3.495-12.892 8.735l-15.562 38.476a8.564 8.564 0 0 0-.503 1.887c-.609 4.398 2.498 8.45 6.938 9.063h.143l40.39 5.469c1.559.203 3.14.159 4.683-.131 7.728-1.493 12.77-8.904 11.255-16.545v-.005c-1.509-7.652-9.005-12.634-16.728-11.136l-12.035 2.33c-1.952.378-3.848-.886-4.23-2.816a3.543 3.543 0 0 1 .719-2.91l8.436-10.392a13.72 13.72 0 0 0 2.024-3.44 13.455 13.455 0 0 0-.172-10.485 13.68 13.68 0 0 0-7.684-7.225 13.582 13.582 0 0 0-4.782-.875ZM82.42 86.041v.005c2.011 3.449.823 7.85-2.66 9.841h-.006a7.31 7.31 0 0 1-3.634.97 7.27 7.27 0 0 1-6.3-3.61c-2.005-3.448-.817-7.849 2.666-9.84 3.478-1.991 7.929-.803 9.934 2.634ZM106.7 72.172l.006.006c2.005 3.448.811 7.85-2.66 9.84h-.006a7.314 7.314 0 0 1-3.628.965 7.291 7.291 0 0 1-6.312-3.604c-2.011-3.449-.817-7.85 2.666-9.84 3.478-1.992 7.923-.804 9.934 2.633Z" clip-rule="evenodd"/></svg>